<svg width="210" height="83" fill="none" xmlns="http://www.w3.org/2000/svg"><g clip-path="url(#clip0)"><path d="M11.99 14.03l34.08-.77S52.45-.62 74.03.06c0 0 6.25 3.37 4.98 19.45 0 0 9.32-3.96 17.87 0 0 0 9.19-2.17 13.15 4.21h6.38s4.85-6.38 9.45-5.62c0 0 6.13-.38 8.55 6.25 0 0 3.45-2.43 7.15 0 0 0 4.47-9.99 19.4-5.39 0 0 11.3-4.34 14.17 5.39 0 0 4.88-3.8 10.72 0 0 0 5.46-2.52 9.96.73 0 0 11.2-3.16 14.17 5.55 0 0 .19 1.34-.57 3.54l-8.62 25.08s-2.49 3.16-6.89 1.63c0 0 1.53 9-6.22 10.72l-1.31.29h-52.4s.45 3.96-.38 6.06c0 0-1.53 4.34-5.81 4.4l-19.79.58s-29.55.06-30.51-.51c0 0-5.94-1.4-7.28-6.38 0 0-1.34-4.4 1.21-9.64 0 0-1.34-1.79-.96-2.94l-9.13 2.23s1.21 8.11-10.91 11.81c0 0-10.4 2.36-16.91-1.34 0 0-3.51-1.53-4.34-2.55l-8.11 1.98s-6.25 1.08-10.08-2.87c0 0-1.6-1.15-2.49-4.53 0 0-5.74-24.51-6-26.71 0 0-3.83-17.84-1.98-20.13.01.02 1.41-6.43 11.49-7.32z" fill="#fff"/><path fill-rule="evenodd" clip-rule="evenodd" d="M12.73 22.36c.01-.07.05-.1.12-.1.1 0 .21.01.31.01 3.29.02 6.58-.07 9.87-.12 2.05-.03 4.1.05 6.14-.07 2.08-.13 4.16.04 6.23-.09 1.94-.12 3.89.03 5.83-.08 2.21-.13 4.42-.04 6.63-.08.28-.01.64-.23.81-.03.11.12-.07.51-.12.78-.15.78-.31 1.56-.47 2.34-.17.88-.37 1.75-.5 2.64-.05.34-.23.5-.51.57-1.64.42-3.28.88-4.83 1.54-1.63.7-3.28 1.46-4.46 2.89-.85 1.03-.93 2.32.02 3.37.79.87 1.87 1.21 2.93 1.53 1 .3 2.03.5 3.11.63-.71.9-1.07 1.94-1.24 3.02-.11.72-.11 1.49.11 2.21.04.13.01.17-.05.25-1.04 1.51-2.21 2.92-3.77 3.93-.8.52-1.67.89-2.65 1.02-1.2.16-2.28-.1-3.36-.56a10.04 10.04 0 01-3.75-2.75 9.179 9.179 0 01-2.03-4.19c-.18-.92-.24-1.85-.15-2.77.11-1.2.38-2.38.86-3.51.37-.86.85-1.67 1.1-2.57.17-.62.46-1.23.26-1.92-.19-.65-.67-.98-1.3-.74-.53.21-1.03.5-1.46.9-1.55 1.44-2.64 3.19-3.49 5.1-.61 1.39-1.02 2.83-1.25 4.34-.19 1.22-.21 2.45-.14 3.66.11 1.77.59 3.47 1.31 5.1.64 1.45 1.52 2.74 2.56 3.93a15.27 15.27 0 005.21 3.87c1.35.62 2.77 1.03 4.24 1.27 1.18.19 2.35.18 3.53.15 1.14-.04 2.25-.29 3.34-.62 1.96-.58 3.75-1.5 5.35-2.78.95-.76 1.81-1.64 2.56-2.61.72-.93 1.34-1.92 1.88-2.97.05-.1.09-.2.12-.3.13-.38.35-.63.73-.86a6.697 6.697 0 002.9-3.3c.69.93 1.47 1.76 2.3 2.54.55.51 1.15.92 1.87 1.17 1.17.41 2.43-.1 2.96-1.16.34-.68.52-1.39.63-2.15.11-.81.09-1.61.06-2.41-.05-1.27-.21-2.54-.5-3.79-.14-.62-.25-1.26-.37-1.89-.05-.25 0-.47.23-.66.41-.33.8-.7 1.2-1.07.8 3.07 1.6 6.11 2.38 9.15.55 2.12 1.07 4.24 1.6 6.36.01.05.05.1.08.15-.14.17-.14.33.02.49-.1.51.13 1.01.07 1.53-.03.35-.03.72-.2 1.02-.24.44-.72.6-1.15.77-1.73.67-3.55 1-5.35 1.44-1.31.32-2.62.64-3.94.94-3.27.74-6.53 1.51-9.8 2.26L39.02 61c-2.72.63-5.43 1.25-8.15 1.86-2.89.66-5.78 1.32-8.68 1.97-.82.18-1.66.21-2.49-.03-1-.28-1.38-1.02-1.58-1.94-.4-1.87-.83-3.73-1.21-5.6l-1.38-6.69c-.43-2.11-.87-4.23-1.28-6.35-.4-2.05-.84-4.1-1.21-6.16-.2-1.09-.45-2.17-.65-3.26-.28-1.51-.58-3.01-.86-4.52-.18-1-.37-2.01-.56-3.01-.19-1.01-.37-2.01-.01-3.03.34-.96 1-1.53 1.94-1.81-.02-.08-.09-.06-.17-.07z" fill="#006F91"/><path fill-rule="evenodd" clip-rule="evenodd" d="M48.36 35.32c-.79.1-1.55-.05-2.32-.08-1.49-.06-2.98-.16-4.41-.61-.48-.15-.48-.17-.1-.49.68-.57 1.43-1.03 2.2-1.46 1.07-.6 2.16-1.15 3.29-1.63.66-.28 1.31-.58 1.98-.81.26-.09.31-.26.34-.44.55-2.88 1.35-5.7 2.45-8.43.68-1.68 1.41-3.34 2.27-4.94.68-1.27 1.42-2.5 2.36-3.61 1.21-1.42 2.69-2.5 4.28-3.43 1.51-.89 3.11-1.57 4.79-2.07.91-.27 1.83-.5 2.78-.61.31-.04.63-.04.94-.08.39-.06.55.15.7.45.58 1.2.94 2.47 1.21 3.77.39 1.84.47 3.69.43 5.55-.03 1.36-.24 2.71-.62 4.01-.67 2.25-1.95 4.18-3.28 6.08-.8 1.14-1.66 2.23-2.53 3.31-.54.67-1.14 1.29-1.72 1.91-.51.54-1.04 1.05-1.56 1.57-.84.84-1.74 1.63-2.66 2.39-.33.27-.17.63-.12.89.06.32.09.65.12.96.05.47.09.95.13 1.43.12 1.32.04 2.64.07 3.96.01.57-.12 1.13-.19 1.7-.05.38-.19.41-.48.14-.45-.42-.83-.92-1.2-1.41-.93-1.24-1.77-2.54-2.48-3.91-.15-.29-.31-.14-.43-.05-.63.47-1.36.65-2.12.57-1.56-.16-2.8-.9-3.68-2.21-.47-.73-.66-1.51-.44-2.42z" fill="#E7650D"/><path fill-rule="evenodd" clip-rule="evenodd" d="M12.73 22.36h.22c.01 0 .02.02.04.05-.58.11-1.06.4-1.45.83-.38.42-.56.94-.68 1.5-.22 1.03.07 2 .25 2.98.17.9.3 1.8.47 2.7.18.98.37 1.95.56 2.93l.51 2.55.78 3.9c.19.95.37 1.89.55 2.84.22 1.11.43 2.22.65 3.33.19.96.4 1.91.59 2.87.22 1.08.42 2.17.64 3.25.22 1.11.46 2.21.69 3.32.21 1.02.41 2.05.64 3.07.25 1.17.51 2.34.79 3.5.14.59.2 1.2.47 1.76.38.81 1.1 1.08 1.9 1.16 1.09.11 2.14-.17 3.2-.42 1.33-.31 2.66-.6 3.99-.91 1.4-.32 2.79-.65 4.18-.96 2.09-.47 4.17-.95 6.26-1.43 1.41-.32 2.81-.66 4.23-.97 2.09-.46 4.17-.96 6.26-1.43 1.52-.34 3.04-.68 4.55-1.05 1.46-.35 2.93-.66 4.39-1 1.2-.28 2.4-.6 3.6-.86 1.4-.31 2.79-.62 4.17-1.01.71-.2 1.42-.45 2.07-.81.43-.24.55-.69.56-1.13.02-.41.09-.84-.07-1.26-.07-.18-.01-.41-.01-.62h.09c.02.49.23.95.31 1.43.14.82.24 1.64.01 2.47-.27.99-1.09 1.35-1.94 1.6-1.18.35-2.39.61-3.6.88-1.45.32-2.89.7-4.35 1.01-1.16.25-2.3.62-3.47.87-1.43.3-2.84.66-4.26 1-1.69.4-3.37.82-5.06 1.23-1.8.43-3.6.83-5.39 1.26-1.43.34-2.85.7-4.28 1.05-1.8.43-3.6.84-5.39 1.26-1.43.34-2.85.73-4.29 1.03-1.62.34-3.21.81-4.84 1.1-1.56.28-2.99-.03-4.2-1.06-.58-.49-.9-1.2-1.06-1.96-.28-1.33-.5-2.66-.79-3.99-.29-1.28-.47-2.59-.72-3.88-.28-1.4-.59-2.78-.87-4.18-.2-.97-.36-1.96-.55-2.93-.22-1.12-.49-2.24-.68-3.37-.16-.98-.38-1.95-.57-2.93-.16-.84-.38-1.66-.51-2.5-.15-.98-.37-1.95-.56-2.93-.16-.84-.39-1.66-.51-2.5-.17-1.14-.44-2.25-.64-3.38-.18-.97-.43-1.94-.59-2.91-.24-1.45-.45-2.91.24-4.31.57-1.16 1.58-1.71 2.79-1.96.23-.03.45-.13.68-.08z" fill="#07617D"/><path fill-rule="evenodd" clip-rule="evenodd" d="M148.32 37.24c0-3.11 0-6.22.01-9.32 0-.46.09-.91.34-1.33.25-.42.64-.58 1.09-.58 1.84-.01 3.67-.05 5.5.01 1.35.05 2.56.57 3.56 1.48.77.69 1.48 1.43 1.9 2.41.54 1.26.68 2.54.5 3.91-.26 1.91-1.32 3.3-2.79 4.39-.86.64-1.87 1.04-2.99 1.15-1.21.11-2.41.03-3.61.06-.31.01-.41.05-.41.4.02 2.41.01 4.82.01 7.24 0 .66-.41 1.12-1.29 1.33-.54.13-1.16-.06-1.47-.62-.23-.41-.35-.84-.35-1.32v-9.21z" fill="#E7650D"/><path fill-rule="evenodd" clip-rule="evenodd" d="M87.93 26.09c2.37-.08 4.43.71 6.34 1.97.41.27.66 1.17.53 1.57-.23.74-.67 1.06-1.31 1.18-.51.1-.86-.12-1.22-.34-.92-.57-1.91-.91-2.97-1.11-.6-.11-1.19-.21-1.79-.17-1.63.13-3.09.67-4.37 1.7-.62.49-1.17 1.05-1.66 1.67-.54.68-.83 1.49-1.12 2.3-.38 1.07-.47 2.2-.34 3.32.17 1.49.74 2.83 1.72 4.01.69.83 1.5 1.48 2.4 2.04.73.45 1.52.72 2.35.87 2.24.4 4.27-.18 6.18-1.33.61-.37 1.91.17 2.08.87.21.88-.06 1.59-.85 2.05-1.27.74-2.62 1.27-4.08 1.54-.91.17-1.82.21-2.73.15-2.23-.16-4.23-.92-5.96-2.37-.96-.8-1.85-1.68-2.53-2.73-.76-1.17-1.26-2.45-1.53-3.82-.14-.71-.25-1.43-.26-2.16-.02-2.37.62-4.54 2.04-6.45 1.21-1.64 2.71-2.96 4.59-3.8 1.35-.6 2.76-1.03 4.49-.96z" fill="#037192"/><path fill-rule="evenodd" clip-rule="evenodd" d="M183.68 46.78c-.84.67-1.71 1.16-2.73 1.38-1.14.25-2.26.28-3.42.16-1.96-.21-3.5-1.19-4.8-2.58-1.17-1.25-1.82-2.74-2.03-4.46-.21-1.67.03-3.23.82-4.71.74-1.41 1.87-2.45 3.21-3.28.89-.55 1.87-.82 2.89-.98 1.24-.2 2.45-.08 3.64.28.82.25 1.58.67 2.26 1.2 1.06.82 1.91 1.84 2.51 3.04.39.78.61 1.61.68 2.48.21 2.59.04 5.19.08 7.78.01.55-.47 1.1-1 1.22-.89.21-1.48-.01-1.84-.66-.27-.47-.27-.47-.27-.87zm12.44-4.62c.2-.44.38-.82.54-1.2.57-1.37 1.11-2.74 1.69-4.11.52-1.24 1.06-2.47 1.61-3.69.52-1.15 2-.82 2.48-.14.34.48.28.97.08 1.46-.94 2.3-1.9 4.59-2.84 6.89-1.03 2.54-2.14 5.05-3.13 7.61-.5 1.29-1.1 2.54-1.67 3.8-.29.63-1.05.92-1.66.67-.86-.35-1.22-1-.95-1.76.52-1.46 1.1-2.9 1.72-4.32.16-.36.29-.74.45-1.11.12-.28-.06-.49-.15-.71-.72-1.79-1.44-3.59-2.18-5.37-.8-1.94-1.59-3.88-2.44-5.8-.29-.65.35-1.84 1.07-1.88.86-.06 1.21.06 1.74 1.06.45.86.78 1.78 1.15 2.68.46 1.09.9 2.18 1.35 3.27.37.85.74 1.71 1.14 2.65z" fill="#E7650D"/><path fill-rule="evenodd" clip-rule="evenodd" d="M99.89 40.01c0-1.36-.01-2.72.01-4.09 0-.29-.08-.32-.34-.33-.45-.01-.89.08-1.34-.07-.67-.23-1.11-.63-1.23-1.36-.13-.76.53-1.59 1.31-1.59.41 0 .83-.02 1.24.01.28.02.37-.05.36-.35-.02-1.29-.02-2.58 0-3.86 0-.5.15-.96.56-1.28.51-.4 1.07-.36 1.63-.12.53.23.84.61.83 1.21-.01 1.36 0 2.72-.01 4.09 0 .24.05.32.31.31.62-.02 1.24-.01 1.86-.01.97 0 1.48.63 1.58 1.51.08.79-.9 1.52-1.58 1.51-.62-.01-1.24 0-1.86-.01-.2 0-.3.01-.3.27.01 2.55-.02 5.09.03 7.64.01.7.15 1.49.99 1.73.45.13.94.15 1.41.12 1.36-.08 1.5.61 1.76 1.42.17.54-.6 1.6-1.19 1.6-.98 0-1.96.11-2.92-.23-1.06-.37-1.78-1.08-2.37-2-.54-.83-.72-1.72-.71-2.69-.01-1.12-.03-2.28-.03-3.43zm12.76-6.32c.7-.55 1.43-1.01 2.26-1.23 1.99-.55 3.95-.47 5.85.39.42.19.94 1.07.8 1.58-.31 1.09-.86 1.38-1.54 1.34-.5-.03-.98-.27-1.48-.39-1.69-.39-3.66.08-4.8 1.69-.58.81-.97 1.64-1.06 2.64-.16 1.82-.03 3.65-.08 5.47-.02.62 0 1.24 0 1.87 0 .58-.44 1.14-1 1.27-1.23.3-2.02-.33-2.02-1.6V33.66c0-.67.52-1.41 1.07-1.53.67-.15 1.57.29 1.88.86.12.21 0 .45.12.7zm10.97 3.6v-9.5c0-.65.23-1.19.85-1.5.94-.47 2.26.34 2.26 1.39 0 5.74 0 11.49-.01 17.23 0 .35.1.42.41.39 1.08-.12 1.53.6 1.73 1.44.17.74-.66 1.66-1.45 1.67-.73.01-1.45-.03-2.18.01-1.04.06-1.6-.79-1.6-1.61-.02-3.18-.01-6.35-.01-9.52z" fill="#037192"/><path fill-rule="evenodd" clip-rule="evenodd" d="M163.78 37.26c0-3.15-.01-6.31 0-9.46 0-.67.23-1.24.91-1.54.93-.41 2.19.39 2.19 1.4 0 5.74 0 11.49-.01 17.23 0 .31.04.45.39.4 1.13-.14 1.53.65 1.74 1.42.19.7-.63 1.66-1.39 1.68-.84.02-1.69.01-2.53 0-.66-.01-1.31-.81-1.31-1.59.01-3.17.01-6.36.01-9.54z" fill="#E7650D"/><path fill-rule="evenodd" clip-rule="evenodd" d="M142.08 38.36c-.49 0-.98.03-1.46-.01-.36-.03-.4.11-.39.41.02.81.01 1.63 0 2.44-.01.51-.17.97-.56 1.32-.48.42-1.01.43-1.57.22-.61-.23-1.05-.61-1.06-1.31-.01-.93-.01-1.86 0-2.8 0-.24-.06-.29-.29-.28-.9.01-1.81 0-2.71.01-.82.01-1.25-.43-1.44-1.14-.24-.86.22-1.65 1.06-1.93.22-.07.43-.04.65-.04.8-.01 1.6-.02 2.4 0 .26.01.35-.04.34-.33-.02-.8-.02-1.6-.01-2.4.02-1.43 1.22-2.15 2.46-1.51.51.26.7.79.72 1.33.03.87.02 1.75 0 2.62 0 .24.07.29.29.28.87-.01 1.75-.01 2.62 0 .56 0 1.31.45 1.45.91.18.58.18 1.59-.37 2-.17.12-.32.21-.54.21-.53-.01-1.06 0-1.59 0z" fill="#037192"/><path fill-rule="evenodd" clip-rule="evenodd" d="M35.48 68.12c-.21-.5-.03-1.02-.08-1.53-.01-.06.08-.14.19-.16 1.89-.44 3.78-.88 5.67-1.33 1.32-.32 2.64-.63 3.96-.96 1.25-.31 2.51-.58 3.76-.9.39-.1.79.13 1.18.25.94.31 1.85.66 2.61 1.33.31.27.52.58.48 1.01-.04.41.11.83-.09 1.22v-1.31c-.82.99-1.96 1.37-3.1 1.75-.86.29-1.75.46-2.65.6-.69.1-1.4.18-2.1.2-.93.03-1.86.05-2.79 0-2.11-.11-4.18-.4-6.14-1.26-.28-.12-.54-.3-.89-.45-.02.55-.01 1.05-.01 1.54z" fill="#086B8A"/><path fill-rule="evenodd" clip-rule="evenodd" d="M35.48 68.12v-1.56c.83.51 1.69.8 2.55 1.05.86.25 1.75.38 2.64.52 1.56.24 3.12.2 4.68.16 1.51-.04 3.01-.27 4.46-.7.95-.28 1.89-.61 2.7-1.23.24-.18.43-.39.65-.62v1.32c-.16.64-.71.88-1.21 1.16-1.15.65-2.41 1.01-3.7 1.25-.64.12-1.27.27-1.93.26-.14.05-.33-.1-.44.09h-4.09c-.12-.19-.3-.04-.44-.09-2.07-.12-4.04-.63-5.87-1.61z" fill="#145B75"/><path fill-rule="evenodd" clip-rule="evenodd" d="M49.28 44.75c-1.74.14-3.26-1.19-3.65-2.81-.27-1.12-.03-2.2.65-3.15.14-.19.24-.23.38.03.99 1.8 2.53 2.92 4.5 3.43.43.11.87.1 1.3.16.39.05.19.2.14.34-.43 1.07-1.91 2.16-3.32 2z" fill="#E7650D"/><path fill-rule="evenodd" clip-rule="evenodd" d="M159.51 58.96c1.53-1.19 2.43-1.16 3.16.09.41-.39.81-.75 1.41-.9.86-.22 1.81.48 1.92 1.25.18 1.27.05 2.55.08 3.83.01.45-.38.23-.59.27-.24.05-.38-.03-.38-.32.01-1.05.01-2.1 0-3.15 0-.63-.21-.86-.77-1.1-.2-.08-.31.02-.43.05-.58.17-1.1.89-1.1 1.48 0 .9-.01 1.81.01 2.71 0 .26-.04.39-.33.33-.24-.04-.59.14-.58-.36.02-1.02.02-2.04 0-3.06-.01-.49-.2-.96-.8-1.17-.26-.09-.47.03-.66.15-.56.34-.92.77-.86 1.51.07.84-.01 1.69.03 2.53.02.47-.27.37-.54.4-.33.04-.37-.1-.37-.39.02-1.48.01-2.96 0-4.44 0-.3-.02-.53.42-.52.42.01.4.23.39.51-.01.09-.01.18-.01.3zm-16.07 3.96c-.59-.42-.57-1.1-.19-1.6.14-.18.18-.37.03-.62-.54-.94.06-2.22 1.04-2.49.44-.12.9-.1 1.33-.03.5.09.98.06 1.48.07.27 0 .4.05.4.36 0 .3-.12.39-.39.36-.13-.01-.26 0-.44 0 .4.71.36 1.36-.05 2.04-.28.46-1.43.83-1.85.69-.22-.08-.49-.01-.67-.2-.06-.06-.15-.05-.15.05-.01.17-.24.24-.13.48.2.45.61.35.94.4.5.08 1.01-.05 1.52.09.67.19 1.08.48 1.12.96.07.85-.07 1.32-.83 1.7-.93.47-1.94.38-2.94.12-1.06-.27-1.06-1.51-.47-2.14.08-.08.16-.15.25-.24zM98.37 73.75c.03.69.03.68-.45.69-.28 0-.34-.12-.34-.37.01-1.23 0-2.46 0-3.68 0-1.11.03-2.22-.01-3.33-.02-.46.25-.34.49-.36.27-.02.45-.02.43.37-.04.88-.01 1.76-.01 2.72.35-.25.62-.46.93-.61 1.04-.52 2.24.18 2.53 1.12.27.87.3 1.78.07 2.64-.4 1.48-2.02 2.17-3.36 1-.07-.06-.11-.18-.16-.27-.04.03-.08.05-.12.08zm16.9-10.98c-.57.43-1.07.86-1.81.82-.84-.04-1.68-.62-1.83-1.44-.16-.89-.2-1.8.08-2.68.39-1.23 2.03-1.87 3.08-.94.11.1.26.17.39.25 0-.91.01-1.79 0-2.68 0-.35.24-.33.46-.33.22-.01.43.01.43.32 0 2.4 0 4.79.01 7.19 0 .22-.09.25-.26.22-.2-.04-.5.15-.55-.24-.02-.14 0-.29 0-.49zm12.35-3.76c.44-.45.87-.74 1.45-.86.88-.18 1.62.3 1.94.86.37.65.37 1.33.36 2.05-.01.68-.18 1.27-.54 1.82-.39.6-1.74.99-2.4.5-.22-.17-.48-.29-.71-.54 0 .81-.01 1.55 0 2.29 0 .23-.02.33-.29.33-.6-.01-.6 0-.6-.59v-6.21c0-.32.01-.51.43-.51.44.01.37.26.37.52-.01.09-.01.18-.01.34zm-12.98 12.76c0 .77-.02 1.54.01 2.31.01.37-.2.35-.45.35s-.46.02-.45-.35c.02-1.29 0-2.58.02-3.86 0-.28-.07-.34-.34-.33-.65.02-1.3.01-1.95 0-.21 0-.31.02-.3.28.02.86 0 1.72.01 2.58.01.31.06.62.34.83.21.16.42.17.67.06.15-.07.37-.24.46.09.07.24.1.49-.18.61-.55.25-1.1.23-1.64-.08-.45-.25-.53-.68-.54-1.13-.02-.95-.02-1.9 0-2.84.01-.34-.08-.44-.4-.4-.23.03-.5.09-.51-.33-.01-.38.11-.52.48-.46.32.05.5-.04.43-.4-.02-.13 0-.27 0-.4 0-.51.22-.68.71-.53.18.05.19.19.19.35 0 .32-.11.8.05.93.21.17.64.06.98.06.65 0 1.3.02 1.95-.01.36-.02.5.07.48.46-.04.73-.02 1.47-.02 2.21zm-6.22.04c.06.39-.04.84-.21 1.26-.27.65-.73 1.09-1.44 1.29-.88.25-1.68.2-2.45-.33-.43-.3-.68-.73-.78-1.19-.17-.74-.19-1.51.08-2.24.39-1.06 1.06-1.46 2.1-1.58.56-.07 1.12.02 1.61.3.75.42.99 1.14 1.09 1.94.02.15 0 .32 0 .55zm-9.68-11.07c0 .71-.12 1.3-.46 1.85-.39.62-.99.89-1.64.98-.67.09-1.34.01-1.96-.41-.48-.33-.71-.79-.82-1.27-.17-.78-.18-1.57.15-2.34.34-.81.9-1.25 1.77-1.39.76-.12 1.44-.02 2.08.41.45.3.67.74.79 1.23.08.33.15.68.09.94zm38.03.19c-.05-.67.09-1.27.44-1.84.29-.48.73-.71 1.24-.87.57-.18 1.13-.16 1.7 0 .85.23 1.31.84 1.49 1.62.24 1.03.14 2.06-.52 2.94-.33.44-.83.68-1.35.76-.92.14-1.81.07-2.47-.72-.46-.54-.58-1.2-.53-1.89zm-43.25 8.08c1.4-.03 2.33.89 2.39 2.29.03.6 0 1.16-.2 1.72-.29.8-.86 1.23-1.68 1.42-.52.12-1.01.07-1.51-.05-.9-.23-1.37-.9-1.5-1.74-.09-.59-.09-1.22.06-1.84.3-1.2 1.31-1.83 2.44-1.8zm95.49-8.08c.09.8-.16 1.6-.88 2.15-.78.61-1.69.67-2.61.35-.92-.33-1.28-1.03-1.42-1.97-.1-.67 0-1.28.2-1.9.23-.72 1.01-1.26 1.75-1.4.57-.11 1.1-.03 1.62.11.68.18 1.31 1.12 1.33 1.86.02.22.01.46.01.8zM80.85 71.94c-.5 0-1.01.01-1.51-.01-.2-.01-.24.05-.24.24.02.96.61 1.53 1.58 1.54.51.01.98-.07 1.44-.27.11-.05.25-.19.34-.04.08.13.17.28.08.48-.17.38-.53.41-.86.49-.73.2-1.46.21-2.17-.06-.73-.28-1.13-.88-1.27-1.62-.17-.87-.13-1.72.29-2.54.46-.9 1.47-1.28 2.4-1.13.86.14 1.56.53 1.74 1.66.01.08.09.16.08.23-.04.8.25 1.09-.88 1.03-.34-.01-.68 0-1.02 0zm75.12-9.09c-.54.5-1.11.78-1.83.74-.67-.04-1.4-.56-1.48-1.12-.14-.92.22-1.53 1.02-1.83.59-.22 1.19-.27 1.8-.25.22.01.28-.04.3-.28.09-1.24-.78-1.37-1.62-1.17-.29.07-.57.21-.85.31-.11.04-.18.21-.35.07-.17-.14-.16-.32-.12-.48.06-.25.28-.36.51-.45.8-.32 1.62-.46 2.45-.13.78.31.9 1.02.93 1.73.04 1.02-.01 2.04.02 3.06.01.41-.17.42-.5.45-.42.03-.3-.23-.31-.44.01-.04.03-.1.03-.21zm-75.05-1.84c-.49 0-.98.01-1.46 0-.27-.01-.37.09-.35.35.06 1.01.93 1.62 1.93 1.44.36-.06.7-.15 1.05-.26.12-.04.37-.27.45.09.06.26.07.5-.22.64-.68.31-1.41.41-2.13.32-.99-.12-1.71-.7-1.91-1.69-.24-1.18-.25-2.36.77-3.25.66-.58 1.44-.66 2.25-.44.77.21 1.21.73 1.38 1.53.07.34.05.66.07.99.02.24-.1.3-.32.3-.5-.02-1-.02-1.51-.02zm39.55 0c-.5 0-1.01.01-1.51 0-.26-.01-.35.11-.32.34.12.94.67 1.51 1.6 1.51.46 0 .94-.07 1.38-.31.1-.05.36-.27.46.01.08.23.09.48-.17.67-.33.25-.75.29-1.11.33-.9.09-1.81.07-2.49-.7-.28-.32-.48-.68-.51-1.08-.08-1.1-.24-2.23.72-3.09.57-.51 1.2-.64 1.98-.55.8.1 1.29.49 1.63 1.17.23.47.17.98.17 1.48 0 .22-.18.22-.35.22h-1.48zm50.52 1.92c-.52.4-1.01.7-1.63.67-.96-.05-1.55-.38-1.66-1.18-.12-.89.05-1.47 1.22-1.84.55-.18 1.13-.2 1.7-.18.21.01.27-.04.27-.26.02-.97-.7-1.52-1.66-1.23-.26.08-.5.23-.77.29-.16.04-.33.37-.47.09-.12-.23-.14-.57.17-.73.24-.13.48-.26.75-.33.67-.18 1.32-.19 1.98.08.67.27.86.82.87 1.45.03 1.08 0 2.16.01 3.24 0 .31.01.52-.42.52-.42-.01-.39-.24-.36-.59zm10.65.03c-.52.4-1.05.7-1.73.64-.61-.06-1.11-.25-1.39-.84-.28-.57-.22-1.14.14-1.62.31-.41.81-.58 1.32-.66.45-.07.89-.11 1.34-.08.2.01.23-.06.24-.24.09-1.26-.88-1.5-1.95-1.14-.15.05-.29.15-.44.22-.17.08-.41.26-.51.03-.09-.21-.13-.55.17-.7.29-.15.6-.3.91-.37.58-.14 1.17-.14 1.75.06.57.2.96.71.96 1.31 0 1.18-.01 2.37.01 3.55 0 .29-.03.41-.37.39-.3-.02-.5-.04-.44-.41-.01-.03-.01-.07-.01-.14zm-75.421-.01c-.4.26-.75.57-1.21.62-.62.07-1.24.04-1.71-.44-.45-.46-.5-1.04-.3-1.62.26-.72.9-.89 1.56-1.03.45-.1.89-.09 1.34-.08.2.01.2-.08.21-.23.05-1.01-.68-1.56-1.67-1.25-.25.08-.5.16-.73.29-.16.1-.379.27-.479.11-.14-.22-.161-.55.119-.73.28-.18.59-.31.91-.38.63-.14 1.24-.14 1.86.12.66.27.841.81.861 1.41.03 1.08.009 2.16.009 3.24 0 .27.08.55-.39.55-.43-.01-.42-.24-.38-.58zm18.391 10.84c-.71.63-1.44.9-2.33.59-.65-.22-1.06-.83-.96-1.63.08-.65.57-1.1 1.15-1.26.59-.17 1.19-.2 1.79-.17.22.01.26-.05.26-.27-.01-1.33-.87-1.43-2.02-1.13-.14.04-.27.15-.4.21-.16.07-.39.25-.48.06-.08-.17-.11-.44.09-.65.37-.38.88-.43 1.34-.52.44-.09.93-.06 1.36.11.73.29.96.77.99 1.52.04 1.11 0 2.22.02 3.33.01.34-.08.46-.44.46-.39 0-.38-.22-.37-.48a.462.462 0 010-.17zm49.75-12.88c-.05.45.04.91.29 1.32.41.65 1.25.75 1.99.27.02-.02.04-.05.07-.06.21-.03.38-.46.54-.2.12.19.17.6-.13.84-.25.2-.52.36-.85.42-.28.04-.37.14-.21.43.15.26.31.53.17.89-.21.53-.63.82-1.15.68-.18-.05-.34-.02-.51-.04-.23-.04-.31-.17-.31-.41 0-.28.17-.21.31-.21.99-.02 1.02-.07.64-.97-.09-.22-.2-.3-.45-.4-.64-.25-1.08-.7-1.24-1.44-.21-.96-.24-1.87.2-2.77.33-.66.85-.99 1.59-1.11.57-.09 1.05.05 1.56.26.45.19.43.54.41.9-.01.13-.11.28-.31.11-.19-.16-.42-.27-.64-.39-.73-.4-1.69-.03-1.9.95-.06.31-.09.6-.07.93zm-88.75 2.67c-.46.03-.83-.08-1.2-.24-.22-.1-.41-.21-.42-.49-.01-.18.01-.37.13-.47.11-.09.24.08.36.13.48.2.92.48 1.51.3.38-.12.6-.33.66-.65.07-.34-.18-.57-.49-.72-.42-.2-.84-.41-1.26-.6-.98-.43-1-1.97-.08-2.46.72-.38 1.47-.38 2.21-.03.13.06.27.15.26.32-.02.17.1.37-.07.5s-.28-.09-.43-.12c-.35-.07-.64-.31-1.07-.18-.37.11-.6.24-.66.62-.07.48.28.68.62.83.34.15.68.27 1.02.43.79.37.91.89.85 1.55-.05.53-.57 1.12-1.14 1.22-.29.02-.56.19-.8.06zm30.72 8.15c-.04-.66.13-1.31.52-1.92.38-.58 1.53-.92 2.12-.78.31.08.61.15.89.32.21.13.34.29.37.53.02.15.07.34-.11.44-.17.09-.3-.04-.42-.12-.74-.48-1.28-.51-1.87-.13-.36.24-.47.64-.5.97-.05.54-.11 1.1.06 1.65.31 1.02 1.25 1.28 2.1.76.06-.04.13-.06.18-.1.16-.13.32-.34.55-.2.14.09-.01.81-.19.91-.91.51-1.99.75-2.97-.08-.5-.42-.66-1.01-.72-1.62-.02-.19-.01-.39-.01-.63zm-26.57-10.7c-.06.37.05.84.34 1.24.48.65 1.11.69 1.97.21.03-.01.04-.05.06-.06.2-.04.39-.42.52-.21.12.21.19.6-.09.85-.59.52-1.31.65-2.04.5-1.36-.3-1.62-1.16-1.72-2.24-.07-.73-.03-1.46.35-2.11.35-.6.85-.94 1.56-1.05.59-.09 1.1.01 1.6.28.32.17.52.59.4.9-.11.28-.31.14-.44.03-.23-.2-.49-.3-.77-.41-.67-.27-1.46.24-1.65.96-.09.33-.07.65-.09 1.11z" fill="#037192"/><path fill-rule="evenodd" clip-rule="evenodd" d="M101.32 59.61c0 1.15-.02 2.31.01 3.46.01.37-.13.45-.46.43-.28-.02-.54.05-.53-.4.02-2.31.02-4.62 0-6.93 0-.45.24-.4.53-.41.32-.02.48.04.47.43-.04 1.14-.02 2.28-.02 3.42zm48.51-.58c.32-.47.64-.8 1.15-.91.65-.15 1.05.19.9.82-.03.14-.08.23-.3.15-.74-.25-1.65.46-1.65 1.26 0 .93-.01 1.87.01 2.8.01.35-.18.38-.44.35-.23-.03-.55.13-.55-.33.01-1.55.01-3.11 0-4.66 0-.36.24-.32.46-.33.22-.01.44.01.43.32-.02.14-.01.29-.01.53z" fill="#097192"/><path fill-rule="evenodd" clip-rule="evenodd" d="M133.83 59.08c.39-.47.67-.84 1.17-.97.33-.09.64.01.88.17.22.15.11.49.07.72-.05.29-.31.09-.41.04-.26-.12-.49-.1-.71.06-.52.36-.9.8-.9 1.49.01.87 0 1.74.01 2.62 0 .2-.01.36-.27.29-.22-.06-.62.2-.62-.3v-4.75c0-.29.17-.29.38-.28.2.01.44-.06.43.28-.03.16-.03.33-.03.63zM88.08 69.9c.31-.16.39-.52.7-.68.36-.18.68-.24 1.08-.14.45.12.39.46.34.72-.07.32-.34.18-.57.11-.22-.07-.47-.05-.65.11-.47.43-.89.87-.83 1.61.06.79 0 1.59.02 2.39.01.35-.13.41-.44.41-.32 0-.47-.05-.47-.43.02-1.51.02-3.01 0-4.52 0-.31.1-.4.4-.4.3 0 .44.08.4.4.01.13.02.26.02.42z" fill="#037192"/><path fill-rule="evenodd" clip-rule="evenodd" d="M182.44 56.46c-.05.3-.19.64-.6.84-.43.2-.82.16-1.2-.09-.18-.12-.33-.28-.5-.4-.36-.26-.7-.12-.71.31 0 .34-.28.33-.41.3-.15-.03-.35-.1-.27-.44.12-.51.3-.83.83-.98.46-.14.77.11 1.12.29.16.09.29.23.44.34.29.19.52.09.6-.26.04-.17.08-.34.24-.42.21-.1.46.12.46.51z" fill="#097192"/><path fill-rule="evenodd" clip-rule="evenodd" d="M106.99 66.61c.14-.02.3-.02.37.14.07.15-.08.23-.15.33-.26.34-.5.68-.76 1.02-.11.15-.26.27-.46.28-.12.01-.27.05-.36-.09-.1-.15.01-.22.08-.34.2-.35.45-.68.65-1.02.15-.26.35-.33.63-.32z" fill="#0C7293"/><path fill-rule="evenodd" clip-rule="evenodd" d="M114.26 68.12c-.39.05-.61-.06-.61-.5 0-.4.12-.59.55-.56.46.03.62.14.61.54.01.36-.12.6-.55.52z" fill="#097192"/><path fill-rule="evenodd" clip-rule="evenodd" d="M42.59 69.81h2.49c-.02.14-.12.09-.2.09H42.8c-.09 0-.19.05-.21-.09z" fill="#086B8A"/><path fill-rule="evenodd" clip-rule="evenodd" d="M67.82 51.06h-.09c-.15-.15-.15-.3 0-.44-.05.16.11.28.09.44z" fill="#25647D"/><path fill-rule="evenodd" clip-rule="evenodd" d="M41.34 69.72c.14.06.33-.11.44.09-.14-.06-.32.11-.44-.09zm4.53.09c.11-.2.3-.03.44-.09-.1.2-.29.03-.44.09z" fill="#086B8A"/><path fill-rule="evenodd" clip-rule="evenodd" d="M61.29 26.81c-1.37-.04-2.58-.54-3.66-1.35-.88-.66-1.55-1.47-1.92-2.53-.55-1.57.44-2.91 1.99-3.14 1.82-.26 3.31.43 4.68 1.53.65.52 1.12 1.17 1.48 1.92.75 1.59.02 3.11-1.66 3.49-.31.06-.6.1-.91.08zm-5.86.17c1.41.03 3.13 1.08 3.56 2.58.24.86-.39 1.8-1.28 1.87-1.66.12-2.91-.55-3.77-1.95-.9-1.44.17-2.54 1.49-2.5zm96 5.69c0-1.08.01-2.16-.01-3.24 0-.24.04-.32.3-.32 1.02.02 2.04-.02 3.06.02.77.03 1.44.37 2.06.83 1 .76 1.43 1.78 1.33 3-.11 1.35-1.08 2.85-2.61 3.19-1.29.28-2.59.11-3.88.17-.26.01-.26-.17-.26-.36.01-1.1.01-2.19.01-3.29zm27.28 12.62c-2.54.15-4.85-2.2-5-4.49-.21-3.19 2.39-5.29 4.43-5.48 3.05-.29 5.85 2.29 5.56 5.47-.19 2.13-2.3 4.73-4.99 4.5zm-33.59 17.86c.23.02.54-.05.83.08.26.11.54.2.59.53.05.38-.14.63-.45.81-.64.37-1.32.31-1.97.06a.656.656 0 01-.42-.69c.04-.34.47-.78.74-.79.2-.01.41 0 .68 0zm.98-3.22c-.03.66-.47 1.06-1.08 1.08-.6.02-1.05-.47-1.05-1.06 0-.61.49-1.17 1.06-1.15.59.02 1.09.48 1.07 1.13zM98.47 71.82c0-1.23.26-1.62 1.23-1.96.38-.13.84 0 1.12.39.45.6.52 2.2.11 2.82-.54.81-1.18.84-1.98.19-.49-.39-.48-.41-.48-1.44zm16.69-10.97c.16.75-.11 1.27-.74 1.7-.66.44-1.58.23-1.82-.55-.2-.65-.28-1.33-.07-2.01.16-.55.47-1.03 1.06-1.1.59-.06 1.04.32 1.4.76.31.37.14.81.17 1.2zm12.54.02c0-.12-.02-.24 0-.35.04-.25-.11-.51.12-.75.38-.39.76-.82 1.33-.87.39-.04.75.15.96.56.44.86.46 1.72.08 2.59-.34.79-.98.93-1.72.5-.68-.39-.9-.94-.77-1.68zm-23.28 10.96c0-.73.09-1.36.68-1.75 1.02-.67 2.14-.18 2.33 1.01.1.66.14 1.37-.29 2.02-.39.59-.93.65-1.53.61-.5-.04-.99-.55-1.1-1.08-.06-.29-.13-.59-.09-.81zM97.76 60.9c.02.32-.01.67-.14 1.01-.27.67-.76.95-1.71.88-.5-.04-.94-.49-1.07-1.15-.18-.89-.24-1.77.54-2.46.67-.59 2-.31 2.23.59.09.37.16.72.15 1.13zm43-.11c.02.67-.06 1.3-.58 1.71-.78.61-2.14.37-2.37-.82-.15-.77-.21-1.51.26-2.2.29-.43.94-.7 1.43-.61.57.11 1.05.57 1.17 1.11.07.29.12.57.09.81zM95.01 71.78c-.09.55-.07 1.12-.54 1.55-.42.39-.89.47-1.42.34-.6-.14-.93-.57-1.07-1.13a3.16 3.16 0 01.08-1.75c.2-.64.84-1.07 1.7-.97.53.06 1.09.6 1.15 1.2.03.25.18.48.1.76zm91.55-8.99c-.81 0-1.08-.23-1.38-1.02-.28-.74-.21-1.44.11-2.12.26-.58.85-.88 1.53-.76.64.11 1.06.5 1.21 1.19.13.56.14 1.12-.06 1.67-.26.71-.68 1.04-1.41 1.04zM80.48 71.23c-.4 0-.8-.01-1.19.01-.18.01-.22-.07-.19-.2.26-1.13 1.27-1.67 2.18-1.05.25.17.61.85.58 1.13-.02.18-.14.11-.23.11h-1.15zm74.63-10.13c.75 0 .78.04.68.9-.04.34-.75.85-1.2.88-.56.03-.85-.22-1.01-.69-.17-.49.38-1.05 1.01-1.08.16-.01.34-.01.52-.01z" fill="#fff"/><path fill-rule="evenodd" clip-rule="evenodd" d="M80.48 60.39h-1.02c-.25 0-.4.01-.28-.36.21-.68.58-1.12 1.22-1.24.52-.1 1.24.42 1.37.99.15.61.15.61-.5.61h-.79z" fill="#FCFDFF"/><path fill-rule="evenodd" clip-rule="evenodd" d="M120 60.39c-.34 0-.68.01-1.02 0-.21-.01-.38.04-.26-.34.25-.77.55-1.13 1.29-1.25.63-.1 1.45.71 1.39 1.35-.02.19-.12.24-.29.23-.37.01-.74.01-1.11.01z" fill="#FDFDFF"/><path fill-rule="evenodd" clip-rule="evenodd" d="M170.16 61.1c.73 0 .7 0 .73.72.02.51-.38.67-.69.85-.55.34-1.03.23-1.39-.12-.3-.29-.22-1.03.19-1.24.35-.16.53-.21 1.16-.21zm10.7 0c.22.04.58-.1.65.06.11.26.08.61.03.9-.03.16-.21.32-.37.42-.38.25-.74.5-1.27.32-.36-.13-.54-.33-.58-.68-.04-.4.13-.66.49-.86.34-.19.69-.14 1.05-.16zm-75.46 0c.71 0 .69 0 .72.69.02.58-.44.71-.8.94-.35.22-.73.22-1.07.01-.55-.32-.52-1.18.11-1.48.35-.16.69-.16 1.04-.16z" fill="#fff"/><path fill-rule="evenodd" clip-rule="evenodd" d="M124.51 72.53c0 .74-.87 1.43-1.54 1.21-.62-.2-.73-.37-.68-.98.03-.37.33-.69.81-.71.27-.01.53-.1.8-.1.61-.02.61-.02.61.58z" fill="#FDFFFF"/></g><defs><clipPath id="clip0"><path fill="#fff" d="M0 0h210v83H0z"/></clipPath></defs></svg>